<mxfile host="app.diagrams.net" modified="2023-06-02T06:49:13.429Z" agent="Mozilla/5.0 (Windows NT 10.0; Win64; x64; rv:109.0) Gecko/20100101 Firefox/113.0" etag="R-wFizTx5jaHH7lWsB6C" version="21.2.9" type="device">
  <diagram name="Page-1" id="BA27kS_UU-wW2fiPTs2y">
    <mxGraphModel dx="699" dy="462" grid="1" gridSize="10" guides="1" tooltips="1" connect="1" arrows="1" fold="1" page="1" pageScale="1" pageWidth="850" pageHeight="1100" math="0" shadow="0">
      <root>
        <mxCell id="0" />
        <mxCell id="1" parent="0" />
        <mxCell id="oc-jnGKAg2EDH943eoju-10" value="" style="rounded=0;whiteSpace=wrap;html=1;" vertex="1" parent="1">
          <mxGeometry x="265" y="70" width="200" height="300" as="geometry" />
        </mxCell>
        <mxCell id="oc-jnGKAg2EDH943eoju-1" value="buatJadwal" style="ellipse;whiteSpace=wrap;html=1;" vertex="1" parent="1">
          <mxGeometry x="320" y="160" width="90" height="40" as="geometry" />
        </mxCell>
        <mxCell id="oc-jnGKAg2EDH943eoju-3" value="hapusJadwal" style="ellipse;whiteSpace=wrap;html=1;" vertex="1" parent="1">
          <mxGeometry x="320" y="210" width="90" height="40" as="geometry" />
        </mxCell>
        <mxCell id="oc-jnGKAg2EDH943eoju-4" value="editJadwal" style="ellipse;whiteSpace=wrap;html=1;" vertex="1" parent="1">
          <mxGeometry x="320" y="260" width="90" height="40" as="geometry" />
        </mxCell>
        <mxCell id="oc-jnGKAg2EDH943eoju-7" value="getJadwal" style="ellipse;whiteSpace=wrap;html=1;" vertex="1" parent="1">
          <mxGeometry x="320" y="310" width="90" height="40" as="geometry" />
        </mxCell>
        <mxCell id="oc-jnGKAg2EDH943eoju-8" value="User" style="shape=umlActor;verticalLabelPosition=bottom;verticalAlign=top;html=1;outlineConnect=0;" vertex="1" parent="1">
          <mxGeometry x="120" y="200" width="30" height="60" as="geometry" />
        </mxCell>
        <mxCell id="oc-jnGKAg2EDH943eoju-9" value="alarm" style="ellipse;whiteSpace=wrap;html=1;" vertex="1" parent="1">
          <mxGeometry x="320" y="110" width="90" height="40" as="geometry" />
        </mxCell>
        <mxCell id="oc-jnGKAg2EDH943eoju-11" value="app.tepatwaktu" style="text;html=1;strokeColor=none;fillColor=none;align=center;verticalAlign=middle;whiteSpace=wrap;rounded=0;" vertex="1" parent="1">
          <mxGeometry x="335" y="70" width="60" height="30" as="geometry" />
        </mxCell>
        <mxCell id="oc-jnGKAg2EDH943eoju-14" value="" style="endArrow=classic;html=1;rounded=0;exitX=0;exitY=0.5;exitDx=0;exitDy=0;" edge="1" parent="1" source="oc-jnGKAg2EDH943eoju-9">
          <mxGeometry width="50" height="50" relative="1" as="geometry">
            <mxPoint x="330" y="230" as="sourcePoint" />
            <mxPoint x="160" y="210" as="targetPoint" />
          </mxGeometry>
        </mxCell>
        <mxCell id="oc-jnGKAg2EDH943eoju-15" value="" style="endArrow=classic;html=1;rounded=0;exitX=0;exitY=0.5;exitDx=0;exitDy=0;" edge="1" parent="1" source="oc-jnGKAg2EDH943eoju-1">
          <mxGeometry width="50" height="50" relative="1" as="geometry">
            <mxPoint x="330" y="230" as="sourcePoint" />
            <mxPoint x="160" y="220" as="targetPoint" />
          </mxGeometry>
        </mxCell>
        <mxCell id="oc-jnGKAg2EDH943eoju-16" value="" style="endArrow=classic;html=1;rounded=0;" edge="1" parent="1">
          <mxGeometry width="50" height="50" relative="1" as="geometry">
            <mxPoint x="320" y="230" as="sourcePoint" />
            <mxPoint x="160" y="230" as="targetPoint" />
          </mxGeometry>
        </mxCell>
        <mxCell id="oc-jnGKAg2EDH943eoju-19" value="" style="endArrow=classic;html=1;rounded=0;exitX=0;exitY=0.5;exitDx=0;exitDy=0;" edge="1" parent="1" source="oc-jnGKAg2EDH943eoju-4">
          <mxGeometry width="50" height="50" relative="1" as="geometry">
            <mxPoint x="330" y="230" as="sourcePoint" />
            <mxPoint x="160" y="240" as="targetPoint" />
          </mxGeometry>
        </mxCell>
        <mxCell id="oc-jnGKAg2EDH943eoju-20" value="" style="endArrow=classic;html=1;rounded=0;exitX=0;exitY=0.5;exitDx=0;exitDy=0;" edge="1" parent="1" source="oc-jnGKAg2EDH943eoju-7">
          <mxGeometry width="50" height="50" relative="1" as="geometry">
            <mxPoint x="330" y="230" as="sourcePoint" />
            <mxPoint x="160" y="250" as="targetPoint" />
          </mxGeometry>
        </mxCell>
      </root>
    </mxGraphModel>
  </diagram>
</mxfile>
